# xmcd
#
# Track frame offsets:
#	150
#	16458
#	32390
#	45706
#	60302
#	74125
#	88276
#	106701
#	123037
#	140534
#	153774
#	169184
#	186131
#	201095
#	217500
#	234504
#	250053
#	265876
#
# Disc length: 3717
#
# Revision: 3
# Processed by: cddbd v1.5.1PL0 Copyright (c) Steve Scherf et al.
# Submitted via: FreeRIP 2.60 
# Normalized: r2:DSETVAR1,TDELIM( - )
#
DISCID=eb0e8312
DTITLE=Various Artist - Promo Only Country Radio May 2002
DYEAR=2002
DGENRE=Country
TTITLE0=Diamond Rio - Beautiful Mess
TTITLE1=Aaron Tippin - I'll Take Love Over Money
TTITLE2=Brooks and Dunn - My Heart Is Lost To You
TTITLE3=Pinmonkey - Barbed Wire And Roses
TTITLE4=Phil Vassar - American Child
TTITLE5=Jeffrey Steele - Good To Go
TTITLE6=Martina Mcbride - Where Would You Be
TTITLE7=Sawyer Brown - Can You Hear Me Now
TTITLE8=Joe Nichols - The Impossible
TTITLE9=Rodney Atkins - Sing Along
TTITLE10=Sixwire - Look At Me Now
TTITLE11=The Clark Family Experience - Going Away
TTITLE12=Hank Williams Jr. - The "F" Word
TTITLE13=Charlene Carole - Where Do I Go From Here
TTITLE14=David Nail - Memphis
TTITLE15=Cledus T. Judd - Breath
TTITLE16=J. Michael Harter - Hard Call To Make
TTITLE17=The Stevens Sisters - Little By Little
EXTD=
EXTT0=
EXTT1=
EXTT2=
EXTT3=
EXTT4=
EXTT5=
EXTT6=
EXTT7=
EXTT8=
EXTT9=
EXTT10=
EXTT11=
EXTT12=
EXTT13=
EXTT14=
EXTT15=
EXTT16=
EXTT17=
PLAYORDER=
